<svg xmlns="http://www.w3.org/2000/svg" width="20" height="20" viewBox="0 0 20 20" fill="none">
  <path d="M10 20C15.5229 20 20 15.5228 20 10C20 4.47715 15.5229 0 10 0C4.47716 0 0 4.47715 0 10C0 15.5228 4.47716 20 10 20Z" fill="#CA0515"/>
  <mask id="mask0_15396_11009" style="mask-type:alpha" maskUnits="userSpaceOnUse" x="0" y="0" width="20" height="20">
    <path d="M10 20C15.5229 20 20 15.5228 20 10C20 4.47715 15.5229 0 10 0C4.47716 0 0 4.47715 0 10C0 15.5228 4.47716 20 10 20Z" fill="white"/>
  </mask>
  <g mask="url(#mask0_15396_11009)">
    <path d="M4.90039 6.99219C5.47209 6.99219 5.93555 6.53748 5.93555 5.97656C5.93555 5.41565 5.47209 4.96094 4.90039 4.96094C4.32869 4.96094 3.86523 5.41565 3.86523 5.97656C3.86523 6.53748 4.32869 6.99219 4.90039 6.99219Z" fill="white"/>
    <path d="M15.1348 6.99219C15.7065 6.99219 16.1699 6.53748 16.1699 5.97656C16.1699 5.41565 15.7065 4.96094 15.1348 4.96094C14.5631 4.96094 14.0996 5.41565 14.0996 5.97656C14.0996 6.53748 14.5631 6.99219 15.1348 6.99219Z" fill="white"/>
    <path d="M10.1152 17.0693C12.1647 17.0693 13.8262 15.4079 13.8262 13.3584C13.8262 11.3089 12.1647 9.64746 10.1152 9.64746C8.06574 9.64746 6.4043 11.3089 6.4043 13.3584C6.4043 15.4079 8.06574 17.0693 10.1152 17.0693Z" fill="white"/>
    <path d="M10.1152 24.1797C12.1647 24.1797 13.8262 22.5182 13.8262 20.4687C13.8262 18.4193 12.1647 16.7578 10.1152 16.7578C8.06574 16.7578 6.4043 18.4193 6.4043 20.4687C6.4043 22.5182 8.06574 24.1797 10.1152 24.1797Z" fill="white"/>
    <path d="M14.3848 6.36719C13.2481 7.24609 12.4004 8.33984 11.8497 9.64453C11.0215 11.6016 11.6075 11.8945 12.3848 10.0859C12.9043 8.87891 13.752 7.75391 14.92 6.71094L14.3848 6.36719Z" fill="white"/>
    <path d="M5.72852 6.36719C6.86524 7.24609 7.71289 8.33984 8.26368 9.64453C9.0918 11.6016 8.50586 11.8945 7.72852 10.0859C7.20899 8.87891 6.36524 7.75391 5.19336 6.71094L5.72852 6.36719Z" fill="white"/>
    <path d="M8.78711 16.7188V17.1875H11.4434C11.4434 17.1094 11.4434 17.0312 11.4434 16.9531C11.4434 16.875 11.4434 16.7969 11.4434 16.7188H8.78711Z" fill="white"/>
  </g>
</svg>