<svg xmlns="http://www.w3.org/2000/svg" width="32.715" height="32.715" viewBox="0 0 32.715 32.715">
  <g id="coding" transform="translate(-3 -3)">
    <path id="Path_6481" data-name="Path 6481" d="M17.957,23a.959.959,0,0,0-.6,1.709l1.022.818A16.01,16.01,0,0,1,18.135,23Z" transform="translate(-6.101 -8.719)" fill="#02bf8c"/>
    <path id="Path_6482" data-name="Path 6482" d="M3,52.73v2.256H6.384v-7.78A6.215,6.215,0,0,0,3,52.73Z" transform="translate(0 -19.272)" fill="#02bf8c"/>
    <path id="Path_6483" data-name="Path 6483" d="M16.116,6.534a2.552,2.552,0,0,1,.056,2.04,1.451,1.451,0,0,0,.049,1.184l.939,1.878a.542.542,0,0,1,.1-.083l3.772-2.515a5.725,5.725,0,0,1,3.183-.963,4.634,4.634,0,0,0,2.883-1.011l1.4-1.122a.564.564,0,0,1,.821.127l1.309,1.963a6.187,6.187,0,0,1,.986,2.634L32.1,9.319A4.709,4.709,0,0,0,27.678,3H22.889a17.972,17.972,0,0,0-8.467,2.117l.169.056A2.553,2.553,0,0,1,16.116,6.534Z" transform="translate(-4.979 0)" fill="#02bf8c"/>
    <path id="Path_6484" data-name="Path 6484" d="M26.692,25.256a.564.564,0,0,0,.564-.564V23H25v1.692a.564.564,0,0,0,.564.564Z" transform="translate(-9.591 -8.719)" fill="#02bf8c"/>
    <path id="Path_6485" data-name="Path 6485" d="M36.692,25.256a.564.564,0,0,0,.564-.564V23H35v1.692a.564.564,0,0,0,.564.564Z" transform="translate(-13.951 -8.719)" fill="#02bf8c"/>
    <path id="Path_6486" data-name="Path 6486" d="M33.409,14.729a5.058,5.058,0,0,0-.852-2.816l-.968-1.452-.921.738a5.763,5.763,0,0,1-3.588,1.258,4.6,4.6,0,0,0-2.559.774L21,15.579v.826h5.076a.564.564,0,0,1,.564.564v.564h1.128V16.97a.564.564,0,0,1,.564-.564h5.076Z" transform="translate(-7.847 -3.253)" fill="#02bf8c"/>
    <path id="Path_6487" data-name="Path 6487" d="M21.015,23a14.778,14.778,0,0,0,2.093,7.333h8.205A14.778,14.778,0,0,0,33.406,23H32.287v1.692A1.692,1.692,0,0,1,30.6,26.384H29.467a1.692,1.692,0,0,1-1.692-1.692v-.564H26.647v.564a1.692,1.692,0,0,1-1.692,1.692H23.827a1.692,1.692,0,0,1-1.692-1.692V23Z" transform="translate(-7.854 -8.719)" fill="#02bf8c"/>
    <path id="Path_6488" data-name="Path 6488" d="M55,47.206v7.78h3.384V52.73A6.216,6.216,0,0,0,55,47.206Z" transform="translate(-22.67 -19.272)" fill="#02bf8c"/>
    <path id="Path_6489" data-name="Path 6489" d="M33,38H12.692A1.692,1.692,0,0,0,11,39.692V50.973H34.69V39.692A1.692,1.692,0,0,0,33,38Zm-8.912.79.9.677L21.6,43.979l-.9-.677ZM19.86,43.242l-.8.8-2.256-2.256a.564.564,0,0,1,0-.8l2.256-2.256.8.8L18,41.384Zm2.985,6.039A2.256,2.256,0,1,1,25.1,47.025,2.256,2.256,0,0,1,22.845,49.281Zm6.039-7.5-2.256,2.256-.8-.8,1.857-1.857L25.83,39.527l.8-.8,2.256,2.256a.564.564,0,0,1,0,.8Z" transform="translate(-3.488 -15.258)" fill="#02bf8c"/>
    <path id="Path_6490" data-name="Path 6490" d="M31.128,52a1.128,1.128,0,1,0,1.128,1.128A1.128,1.128,0,0,0,31.128,52Z" transform="translate(-11.771 -21.362)" fill="#02bf8c"/>
    <path id="Path_6491" data-name="Path 6491" d="M44.793,23a15.879,15.879,0,0,1-.245,2.527l1.023-.818a.959.959,0,0,0-.6-1.709Z" transform="translate(-18.113 -8.719)" fill="#02bf8c"/>
  </g>
</svg>
