<svg xmlns="http://www.w3.org/2000/svg" width="32.242" height="29.556" viewBox="0 0 32.242 29.556">
  <g id="details" transform="translate(0 -21.167)">
    <path id="Path_6470" data-name="Path 6470" d="M348.407,201.083h-8.732a1.008,1.008,0,0,0,0,2.015h8.732a1.008,1.008,0,1,0,0-2.015Z" transform="translate(-317.172 -168.497)" fill="#02bf8c"/>
    <path id="Path_6471" data-name="Path 6471" d="M348.407,264.583h-8.732a1.008,1.008,0,0,0,0,2.015h8.732a1.008,1.008,0,1,0,0-2.015Z" transform="translate(-317.172 -227.967)" fill="#02bf8c"/>
    <path id="Path_6472" data-name="Path 6472" d="M348.407,328.083h-8.732a1.008,1.008,0,0,0,0,2.015h8.732a1.008,1.008,0,1,0,0-2.015Z" transform="translate(-317.172 -287.436)" fill="#02bf8c"/>
    <path id="Path_6473" data-name="Path 6473" d="M348.407,391.583h-8.732a1.008,1.008,0,0,0,0,2.015h8.732a1.008,1.008,0,1,0,0-2.015Z" transform="translate(-317.172 -346.906)" fill="#02bf8c"/>
    <path id="Path_6474" data-name="Path 6474" d="M348.407,455.083h-8.732a1.008,1.008,0,0,0,0,2.015h8.732a1.008,1.008,0,1,0,0-2.015Z" transform="translate(-317.172 -406.376)" fill="#02bf8c"/>
    <path id="Path_6475" data-name="Path 6475" d="M16.457,201.083H2.351A2.362,2.362,0,0,0,0,203.434v13.434a2.362,2.362,0,0,0,2.351,2.351H16.457a2.362,2.362,0,0,0,2.351-2.351V203.434A2.362,2.362,0,0,0,16.457,201.083Zm-7.053,4.7A2.015,2.015,0,1,1,7.389,207.8,2.012,2.012,0,0,1,9.4,205.785Zm4.03,8.4a1.015,1.015,0,0,1-1.008,1.008H6.381a1.015,1.015,0,0,1-1.008-1.008v-.5a2.684,2.684,0,0,1,2.821-2.526h2.418a2.684,2.684,0,0,1,2.821,2.526Z" transform="translate(0 -168.497)" fill="#02bf8c"/>
    <path id="Path_6476" data-name="Path 6476" d="M29.891,21.167H2.351A2.354,2.354,0,0,0,0,23.518v3.359a2.354,2.354,0,0,0,2.351,2.351h27.54a2.354,2.354,0,0,0,2.351-2.351V23.518A2.354,2.354,0,0,0,29.891,21.167Z" transform="translate(0 0)" fill="#02bf8c"/>
  </g>
</svg>
