<svg xmlns="http://www.w3.org/2000/svg" width="22.598" height="17.678" viewBox="0 0 22.598 17.678">
  <path id="Path_3055" data-name="Path 3055" d="M18.723,13.2a18,18,0,0,0-4.56-1.433,13.37,13.37,0,0,0-.584,1.213,16.743,16.743,0,0,0-5.054,0,12.963,12.963,0,0,0-.591-1.213A17.942,17.942,0,0,0,3.371,13.2,19.124,19.124,0,0,0,.094,26.007a18.231,18.231,0,0,0,5.593,2.866,13.909,13.909,0,0,0,1.2-1.973A11.778,11.778,0,0,1,5,25.982c.158-.117.313-.24.462-.366a12.888,12.888,0,0,0,11.182,0c.151.126.306.249.462.366a11.748,11.748,0,0,1-1.89.92,13.847,13.847,0,0,0,1.2,1.973,18.194,18.194,0,0,0,5.6-2.868A19.105,19.105,0,0,0,18.723,13.2ZM7.38,23.428a2.145,2.145,0,0,1-1.987-2.26A2.134,2.134,0,0,1,7.38,18.906a2.12,2.12,0,0,1,1.987,2.262A2.131,2.131,0,0,1,7.38,23.428Zm7.343,0a2.145,2.145,0,0,1-1.987-2.26,2.134,2.134,0,0,1,1.987-2.262,2.12,2.12,0,0,1,1.987,2.262A2.133,2.133,0,0,1,14.723,23.428Z" transform="translate(0.246 -11.488)" fill="none" stroke="#fff" stroke-width="0.5"/>
</svg>
