<svg width="22" height="22" viewBox="0 0 20 21" fill="none" xmlns="http://www.w3.org/2000/svg">
<mask id="path-1-outside-1_9530_6509" maskUnits="userSpaceOnUse" x="-1.5" y="-0.962891" width="23" height="23" fill="black">
<rect fill="white" x="-1.5" y="-0.962891" width="23" height="23"/>
<path d="M13.4375 6.78711H6.52344C7.10938 3.31055 8.4375 0.849609 10 0.849609C11.5234 0.849609 12.8906 3.31055 13.4375 6.78711ZM6.25 10.5371C6.25 9.67773 6.28906 8.85742 6.36719 8.03711H13.5938C13.6719 8.85742 13.7109 9.67773 13.7109 10.5371C13.7109 11.4355 13.6719 12.2559 13.5938 13.0371H6.36719C6.28906 12.2559 6.25 11.4355 6.25 10.5371ZM18.9062 6.78711H14.6875C14.3359 4.59961 13.7109 2.60742 12.7344 1.2793C15.5469 2.09961 17.8125 4.16992 18.9062 6.78711ZM7.22656 1.2793C6.25 2.60742 5.625 4.59961 5.27344 6.78711H1.05469C2.14844 4.16992 4.41406 2.09961 7.22656 1.2793ZM19.3359 8.03711C19.5312 8.85742 19.6484 9.67773 19.6484 10.5371C19.6484 11.4355 19.5312 12.2559 19.3359 13.0371H14.8438C14.9219 12.2168 15 11.3965 15 10.5371C15 9.7168 14.9219 8.85742 14.8438 8.03711H19.3359ZM5 10.5371C5 11.3965 5.03906 12.2168 5.11719 13.0371H0.625C0.429688 12.2559 0.3125 11.4355 0.3125 10.5371C0.3125 9.67773 0.429688 8.85742 0.625 8.03711H5.11719C5.03906 8.85742 5 9.7168 5 10.5371ZM6.52344 14.2871H13.4375C12.8906 17.8027 11.5234 20.2246 10 20.2246C8.4375 20.2246 7.10938 17.8027 6.52344 14.2871ZM12.7344 19.834C13.7109 18.5059 14.375 16.5137 14.6875 14.2871H18.9062C17.8125 16.9434 15.5469 19.0137 12.7344 19.834ZM1.05469 14.2871H5.27344C5.625 16.5137 6.25 18.5059 7.22656 19.834C4.41406 19.0137 2.14844 16.9434 1.05469 14.2871Z"/>
</mask>
<path d="M13.4375 6.78711V7.78711H14.6071L14.4254 6.63172L13.4375 6.78711ZM6.52344 6.78711L5.53734 6.62091L5.3408 7.78711H6.52344V6.78711ZM6.36719 8.03711V7.03711H5.4579L5.37169 7.9423L6.36719 8.03711ZM13.5938 8.03711L14.5892 7.9423L14.503 7.03711H13.5938V8.03711ZM13.5938 13.0371V14.0371H14.4987L14.5888 13.1366L13.5938 13.0371ZM6.36719 13.0371L5.37215 13.1366L5.4622 14.0371H6.36719V13.0371ZM18.9062 6.78711V7.78711H20.408L19.8289 6.40152L18.9062 6.78711ZM14.6875 6.78711L13.7002 6.94579L13.8354 7.78711H14.6875V6.78711ZM12.7344 1.2793L13.0144 0.319297L10.1792 -0.507619L11.9287 1.87169L12.7344 1.2793ZM7.22656 1.2793L8.03221 1.87169L9.7817 -0.507619L6.94656 0.319297L7.22656 1.2793ZM5.27344 6.78711V7.78711H6.12556L6.26077 6.94579L5.27344 6.78711ZM1.05469 6.78711L0.132019 6.40152L-0.447035 7.78711H1.05469V6.78711ZM19.3359 8.03711L20.3087 7.80549L20.1258 7.03711H19.3359V8.03711ZM19.3359 13.0371V14.0371H20.1167L20.3061 13.2796L19.3359 13.0371ZM14.8438 13.0371L13.8483 12.9423L13.744 14.0371H14.8438V13.0371ZM14.8438 8.03711V7.03711H13.744L13.8483 8.13192L14.8438 8.03711ZM5.11719 13.0371V14.0371H6.21695L6.11268 12.9423L5.11719 13.0371ZM0.625 13.0371L-0.345143 13.2796L-0.155777 14.0371H0.625V13.0371ZM0.625 8.03711V7.03711H-0.164859L-0.347806 7.80549L0.625 8.03711ZM5.11719 8.03711L6.11268 8.13192L6.21695 7.03711H5.11719V8.03711ZM6.52344 14.2871V13.2871H5.34298L5.53704 14.4515L6.52344 14.2871ZM13.4375 14.2871L14.4256 14.4408L14.6051 13.2871H13.4375V14.2871ZM12.7344 19.834L11.9287 19.2416L10.1792 21.6209L13.0144 20.794L12.7344 19.834ZM14.6875 14.2871V13.2871H13.8181L13.6972 14.1481L14.6875 14.2871ZM18.9062 14.2871L19.8309 14.6679L20.3995 13.2871H18.9062V14.2871ZM1.05469 14.2871V13.2871H-0.438535L0.130009 14.6679L1.05469 14.2871ZM5.27344 14.2871L6.2612 14.1311L6.12793 13.2871H5.27344V14.2871ZM7.22656 19.834L6.94656 20.794L9.7817 21.6209L8.03221 19.2416L7.22656 19.834ZM13.4375 5.78711H6.52344V7.78711H13.4375V5.78711ZM7.50953 6.95331C7.79083 5.28424 8.24119 3.92422 8.7635 3.01122C9.31819 2.04164 9.78147 1.84961 10 1.84961V-0.150391C8.65603 -0.150391 7.67399 0.888047 7.02751 2.01807C6.34866 3.20469 5.84198 4.81342 5.53734 6.62091L7.50953 6.95331ZM10 1.84961C10.1952 1.84961 10.659 2.03595 11.217 3.01122C11.7387 3.92322 12.1883 5.28101 12.4496 6.9425L14.4254 6.63172C14.1398 4.81664 13.6324 3.20568 12.953 2.01807C12.3097 0.893734 11.3282 -0.150391 10 -0.150391V1.84961ZM7.25 10.5371C7.25 9.70879 7.28762 8.92012 7.36268 8.13192L5.37169 7.9423C5.29051 8.79472 5.25 9.64668 5.25 10.5371H7.25ZM6.36719 9.03711H13.5938V7.03711H6.36719V9.03711ZM12.5983 8.13192C12.6733 8.92012 12.7109 9.70879 12.7109 10.5371H14.7109C14.7109 9.64668 14.6704 8.79472 14.5892 7.9423L12.5983 8.13192ZM12.7109 10.5371C12.7109 11.4062 12.6732 12.193 12.5987 12.9376L14.5888 13.1366C14.6706 12.3187 14.7109 11.4649 14.7109 10.5371H12.7109ZM13.5938 12.0371H6.36719V14.0371H13.5938V12.0371ZM7.36222 12.9376C7.28777 12.193 7.25 11.4062 7.25 10.5371H5.25C5.25 11.4649 5.29036 12.3187 5.37215 13.1366L7.36222 12.9376ZM18.9062 5.78711H14.6875V7.78711H18.9062V5.78711ZM15.6748 6.62843C15.3142 4.38479 14.6568 2.20572 13.54 0.686906L11.9287 1.87169C12.7651 3.00912 13.3576 4.81443 13.7002 6.94579L15.6748 6.62843ZM12.4544 2.2393C14.9735 2.97403 17.0049 4.83091 17.9836 7.1727L19.8289 6.40152C18.6201 3.50893 16.1203 1.22519 13.0144 0.319297L12.4544 2.2393ZM6.42091 0.686906C5.30414 2.20572 4.64669 4.38479 4.28611 6.62843L6.26077 6.94579C6.60331 4.81443 7.19586 3.00912 8.03221 1.87169L6.42091 0.686906ZM5.27344 5.78711H1.05469V7.78711H5.27344V5.78711ZM1.97736 7.1727C2.95602 4.83091 4.98747 2.97403 7.50656 2.2393L6.94656 0.319297C3.84065 1.22519 1.34086 3.50893 0.132019 6.40152L1.97736 7.1727ZM18.3631 8.26873C18.5442 9.02938 18.6484 9.77081 18.6484 10.5371H20.6484C20.6484 9.58466 20.5183 8.68546 20.3087 7.80549L18.3631 8.26873ZM18.6484 10.5371C18.6484 11.3457 18.5434 12.0844 18.3658 12.7946L20.3061 13.2796C20.5191 12.4274 20.6484 11.5254 20.6484 10.5371H18.6484ZM19.3359 12.0371H14.8438V14.0371H19.3359V12.0371ZM15.8392 13.1319C15.9168 12.318 16 11.4514 16 10.5371H14C14 11.3416 13.927 12.1156 13.8483 12.9423L15.8392 13.1319ZM16 10.5371C16 9.66245 15.9169 8.75778 15.8392 7.9423L13.8483 8.13192C13.9268 8.95706 14 9.77115 14 10.5371H16ZM14.8438 9.03711H19.3359V7.03711H14.8438V9.03711ZM4 10.5371C4 11.4275 4.04051 12.2795 4.12169 13.1319L6.11268 12.9423C6.03762 12.1541 6 11.3654 6 10.5371H4ZM5.11719 12.0371H0.625V14.0371H5.11719V12.0371ZM1.59514 12.7946C1.41759 12.0844 1.3125 11.3457 1.3125 10.5371H-0.6875C-0.6875 11.5254 -0.558212 12.4274 -0.345143 13.2796L1.59514 12.7946ZM1.3125 10.5371C1.3125 9.77081 1.4167 9.02938 1.59781 8.26873L-0.347806 7.80549C-0.557324 8.68546 -0.6875 9.58466 -0.6875 10.5371H1.3125ZM0.625 9.03711H5.11719V7.03711H0.625V9.03711ZM4.12169 7.9423C4.04044 8.79544 4 9.68649 4 10.5371H6C6 9.74711 6.03768 8.9194 6.11268 8.13192L4.12169 7.9423ZM6.52344 15.2871H13.4375V13.2871H6.52344V15.2871ZM12.4494 14.1334C12.1879 15.8145 11.7383 17.1706 11.218 18.0759C10.664 19.0398 10.2009 19.2246 10 19.2246V21.2246C11.3226 21.2246 12.3048 20.1985 12.952 19.0725C13.6328 17.888 14.1402 16.2753 14.4256 14.4408L12.4494 14.1334ZM10 19.2246C9.77579 19.2246 9.31328 19.0342 8.7625 18.0759C8.24159 17.1696 7.79126 15.8113 7.50983 14.1227L5.53704 14.4515C5.84155 16.2785 6.34825 17.889 7.02851 19.0725C7.67891 20.2041 8.66171 21.2246 10 21.2246V19.2246ZM13.54 20.4264C14.6531 18.9126 15.3534 16.7377 15.6778 14.4261L13.6972 14.1481C13.3966 16.2896 12.7688 18.0991 11.9287 19.2416L13.54 20.4264ZM14.6875 15.2871H18.9062V13.2871H14.6875V15.2871ZM17.9816 13.9064C17.0022 16.2848 14.9718 18.1397 12.4544 18.874L13.0144 20.794C16.122 19.8876 18.6228 17.6019 19.8309 14.6679L17.9816 13.9064ZM1.05469 15.2871H5.27344V13.2871H1.05469V15.2871ZM4.28567 14.4431C4.6462 16.7264 5.3034 18.9066 6.42091 20.4264L8.03221 19.2416C7.1966 18.1052 6.6038 16.301 6.2612 14.1311L4.28567 14.4431ZM7.50656 18.874C4.98915 18.1397 2.95873 16.2848 1.97937 13.9064L0.130009 14.6679C1.33814 17.6019 3.83898 19.8876 6.94656 20.794L7.50656 18.874Z" fill="#19222A" mask="url(#path-1-outside-1_9530_6509)"/>
</svg>
