<svg xmlns="http://www.w3.org/2000/svg" width="21.822" height="21.822" viewBox="0 0 21.521 21.521">
  <g id="Icon_feather-instagram" data-name="Icon feather-instagram" transform="translate(-2.65 -2.65)">
    <g id="Group_11280" data-name="Group 11280">
      <path id="Path_1431" data-name="Path 1431" d="M8.206,3H18.617a5.206,5.206,0,0,1,5.206,5.206V18.617a5.206,5.206,0,0,1-5.206,5.206H8.206A5.206,5.206,0,0,1,3,18.617V8.206A5.206,5.206,0,0,1,8.206,3Z" fill="none" stroke="#f6f6f6" stroke-linecap="round" stroke-linejoin="round" stroke-width="0.7"/>
      <path id="Path_1432" data-name="Path 1432" d="M20.349,15.489A4.164,4.164,0,1,1,16.84,11.98a4.164,4.164,0,0,1,3.509,3.509Z" transform="translate(-2.773 -2.733)" fill="none" stroke="#fff" stroke-linecap="round" stroke-linejoin="round" stroke-width="0.7"/>
    </g>
    <path id="Path_1433" data-name="Path 1433" d="M26.25,9.75h0" transform="translate(-7.113 -2.065)" fill="none" stroke="#f7f9f9" stroke-linecap="round" stroke-linejoin="round" stroke-width="2"/>
  </g>
</svg>
