<svg xmlns="http://www.w3.org/2000/svg" width="20.688" height="20.685" viewBox="0 0 20.688 20.685"><defs><style>.a{fill:none;stroke:#fff;stroke-width:0.6px;}</style></defs><path class="a" d="M4.5,20.086H.332V6.676H4.5ZM2.412,4.847A2.423,2.423,0,1,1,4.823,2.412,2.432,2.432,0,0,1,2.412,4.847Zm17.67,15.239H15.926V13.558c0-1.556-.031-3.551-2.165-3.551-2.165,0-2.5,1.69-2.5,3.439v6.64H7.1V6.676H11.1V8.505h.058A4.376,4.376,0,0,1,15.1,6.34c4.214,0,4.989,2.775,4.989,6.38v7.366Z" transform="translate(0.301 0.299)"/></svg>