<svg xmlns="http://www.w3.org/2000/svg" width="18" height="10.208" viewBox="0 0 18 10.208"><defs><style>.a{fill:#ffffffcc;}</style></defs><g transform="translate(-30.85 -35.096)"><path class="a" d="M41.013,40.2a5.082,5.082,0,1,1-5.081-5.1,5.094,5.094,0,0,1,5.081,5.1"/><path class="a" d="M46.592,40.2c0,2.665-1.13,4.811-2.53,4.811s-2.529-2.146-2.529-4.811,1.129-4.811,2.529-4.811c1.378,0,2.53,2.169,2.53,4.811"/><path class="a" d="M48.85,40.2c0,2.371-.407,4.314-.9,4.314s-.9-1.943-.9-4.314.407-4.314.9-4.314c.519,0,.9,1.943.9,4.314"/></g></svg>