<svg xmlns="http://www.w3.org/2000/svg" width="33.307" height="33.305" viewBox="0 0 33.307 33.305">
  <g id="migrating" transform="translate(-4 -4.004)">
    <path id="Path_6492" data-name="Path 6492" d="M17.215,58.595H13.646A.6.6,0,0,1,13.051,58H4.32l.137.785a.6.6,0,0,0,.565.4H25.839a.6.6,0,0,0,.565-.4L26.541,58H17.809A.6.6,0,0,1,17.215,58.595Z" transform="translate(-0.13 -21.881)" fill="#02bf8c"/>
    <path id="Path_6493" data-name="Path 6493" d="M6.595,36a.588.588,0,0,0-.529.327A.633.633,0,0,0,6,36.595V47.9h8.327a.6.6,0,0,1,.595.595H17.3A.6.6,0,0,1,17.9,47.9h8.327V40.758h-.595a.6.6,0,0,1-.577-.452l-.1-.4-.351.214a.6.6,0,0,1-.726-.089L22.19,38.349a.6.6,0,0,1-.089-.726l.214-.351-.4-.1a.6.6,0,0,1-.452-.577V36Zm7.732,6.542h-1.19v-1.19h1.19Zm2.379,0h-1.19v-1.19h1.19Zm2.379,0H17.9v-1.19h1.19Z" transform="translate(-0.81 -12.966)" fill="#02bf8c"/>
    <circle id="Ellipse_308" data-name="Ellipse 308" cx="1.19" cy="1.19" r="1.19" transform="translate(24.817 21.25)" fill="#02bf8c"/>
    <path id="Path_6494" data-name="Path 6494" d="M6.379,14.707h6.864a3.569,3.569,0,0,1,2.653-1.19h.619A6.554,6.554,0,0,1,23.033,7.57c.178,0,.357.012.535.03a2.969,2.969,0,0,0-5-1.552.6.6,0,0,1-.446.172A.607.607,0,0,1,17.686,6,5.353,5.353,0,0,0,8.163,9.355a.6.6,0,0,1-.595.595H6.379a2.379,2.379,0,0,0,0,4.758Z" fill="#02bf8c"/>
    <path id="Path_6495" data-name="Path 6495" d="M41.412,17.949h-1.4a.611.611,0,0,1-.488-.25.6.6,0,0,1-.071-.541,3.093,3.093,0,0,0,.172-.993,2.974,2.974,0,0,0-5.061-2.117.6.6,0,0,1-.446.172.607.607,0,0,1-.434-.22,5.353,5.353,0,0,0-9.522,3.354.6.6,0,0,1-.595.595h-1.19a2.379,2.379,0,0,0,0,4.758h5.513l1.653-1.653a.6.6,0,0,1,.726-.089l.351.214.1-.4a.6.6,0,0,1,.577-.452H33.68a.6.6,0,0,1,.577.452l.1.4.351-.214a.6.6,0,0,1,.726.089l1.653,1.653h4.324a2.379,2.379,0,1,0,0-4.758Z" transform="translate(-6.484 -3.242)" fill="#02bf8c"/>
    <path id="Path_6496" data-name="Path 6496" d="M40.6,35.619,41.619,34.6l-.387-.642a.606.606,0,0,1-.036-.535.6.6,0,0,1,.4-.351l.726-.178V31.438l-.726-.178a.6.6,0,0,1-.4-.351.606.606,0,0,1,.036-.535l.387-.642L40.6,28.708l-.642.381a.588.588,0,0,1-.535.042.6.6,0,0,1-.351-.4L38.889,28H37.438l-.178.726a.6.6,0,0,1-.351.4.588.588,0,0,1-.535-.042l-.642-.381-1.023,1.023.387.642a.606.606,0,0,1,.036.535.6.6,0,0,1-.4.351L34,31.438v1.451l.726.178a.6.6,0,0,1,.4.351.606.606,0,0,1-.036.535l-.387.642,1.023,1.023.642-.387a.606.606,0,0,1,.535-.036.6.6,0,0,1,.351.4l.178.726h1.451l.178-.726a.6.6,0,0,1,.351-.4.606.606,0,0,1,.535.036Zm-2.433-1.077a2.379,2.379,0,1,1,2.379-2.379A2.379,2.379,0,0,1,38.163,34.542Z" transform="translate(-12.157 -9.724)" fill="#02bf8c"/>
    <path id="Path_6497" data-name="Path 6497" d="M50.542,41.137a1.784,1.784,0,0,1-1.784,1.784H44v1.19h4.758a2.977,2.977,0,0,0,2.974-2.974V34h-1.19Z" transform="translate(-16.209 -12.155)" fill="#02bf8c"/>
  </g>
</svg>
