<svg xmlns="http://www.w3.org/2000/svg" width="21" height="20" viewBox="0 0 21 20" fill="none">
  <path d="M5.5 6.5C5.5 6.22386 5.72386 6 6 6H13C13.2761 6 13.5 6.22386 13.5 6.5C13.5 6.77614 13.2761 7 13 7H6C5.72386 7 5.5 6.77614 5.5 6.5ZM11 9C10.7239 9 10.5 9.22386 10.5 9.5C10.5 9.77614 10.7239 10 11 10H13C13.2761 10 13.5 9.77614 13.5 9.5C13.5 9.22386 13.2761 9 13 9H11ZM10.5 12.5C10.5 12.2239 10.7239 12 11 12H13C13.2761 12 13.5 12.2239 13.5 12.5C13.5 12.7761 13.2761 13 13 13H11C10.7239 13 10.5 12.7761 10.5 12.5ZM6 9C5.72386 9 5.5 9.22386 5.5 9.5V12.5C5.5 12.7761 5.72386 13 6 13H9C9.27614 13 9.5 12.7761 9.5 12.5V9.5C9.5 9.22386 9.27614 9 9 9H6ZM6.5 12V10H8.5V12H6.5ZM2.5 5C2.5 3.89543 3.39543 3 4.5 3H14.5C15.6046 3 16.5 3.89543 16.5 5V6C17.6046 6 18.5 6.89543 18.5 8V13.5C18.5 14.8807 17.3807 16 16 16H5C3.61929 16 2.5 14.8807 2.5 13.5V5ZM15.5 5C15.5 4.44772 15.0523 4 14.5 4L4.5 4C3.94771 4 3.5 4.44772 3.5 5L3.5 13.5C3.5 14.3284 4.17157 15 5 15H16C16.8284 15 17.5 14.3284 17.5 13.5V8C17.5 7.44772 17.0523 7 16.5 7V13.5C16.5 13.7761 16.2761 14 16 14C15.7239 14 15.5 13.7761 15.5 13.5V5Z" fill="#CA0515"/>
</svg>