<svg xmlns="http://www.w3.org/2000/svg" width="22.721" height="18.275" viewBox="0 0 22.721 18.275"><defs><style>.a{fill:none;stroke:#fff;stroke-width:0.6px;}</style></defs><path class="a" d="M19.49,7.778c.014.193.014.386.014.579A12.58,12.58,0,0,1,6.837,21.023a12.581,12.581,0,0,1-6.837-2,9.21,9.21,0,0,0,1.075.055,8.916,8.916,0,0,0,5.527-1.9A4.46,4.46,0,0,1,2.44,14.09a5.614,5.614,0,0,0,.841.069,4.709,4.709,0,0,0,1.172-.152A4.453,4.453,0,0,1,.882,9.638V9.583a4.484,4.484,0,0,0,2.012.565A4.459,4.459,0,0,1,1.516,4.194,12.655,12.655,0,0,0,10.7,8.853a5.026,5.026,0,0,1-.11-1.02,4.456,4.456,0,0,1,7.7-3.046,8.765,8.765,0,0,0,2.826-1.075,4.44,4.44,0,0,1-1.957,2.453,8.925,8.925,0,0,0,2.564-.689,9.57,9.57,0,0,1-2.233,2.3Z" transform="translate(0.162 -3.048)"/></svg>