<svg id="vector" xmlns="http://www.w3.org/2000/svg" width="33.769" height="33.769" viewBox="0 0 33.769 33.769">
  <g id="Group_12529" data-name="Group 12529">
    <g id="Group_12528" data-name="Group 12528">
      <path id="Path_6479" data-name="Path 6479" d="M32.78,0H28.823a.989.989,0,0,0-.989.989v.989H19.683a2.967,2.967,0,0,0-5.6,0H5.936V.989A.989.989,0,0,0,4.947,0H.989A.989.989,0,0,0,0,.989V4.947a.989.989,0,0,0,.989.989H4.947a.989.989,0,0,0,.989-.989v-1H10.05a13,13,0,0,0-6,10.134,2.967,2.967,0,1,0,1.983.02,11.047,11.047,0,0,1,8.193-9.811,2.966,2.966,0,0,0,5.317,0A11.047,11.047,0,0,1,27.736,14.1a2.969,2.969,0,1,0,1.983-.02,12.975,12.975,0,0,0-6-10.12h4.114v.989a.989.989,0,0,0,.989.989H32.78a.989.989,0,0,0,.989-.989V.989A.989.989,0,0,0,32.78,0ZM3.957,3.957H1.979V1.979H3.957ZM5.013,17.874A.989.989,0,1,1,6,16.885.99.99,0,0,1,5.013,17.874ZM16.885,3.957a.989.989,0,1,1,.989-.989A.99.99,0,0,1,16.885,3.957ZM28.757,15.9a.989.989,0,1,1-.989.989A.99.99,0,0,1,28.757,15.9ZM31.791,3.957H29.812V1.979h1.979Z" fill="#02bf8c"/>
    </g>
  </g>
  <g id="Group_12531" data-name="Group 12531" transform="translate(7.981 7.981)">
    <g id="Group_12530" data-name="Group 12530">
      <path id="Path_6480" data-name="Path 6480" d="M138.642,133.322l-7.915-11.872h0l-.009-.012c-.014-.02-.028-.039-.043-.057a.989.989,0,0,0-1.584.057l-.009.012h0l-7.915,11.872a.989.989,0,0,0,.124,1.248,12.534,12.534,0,0,1,3.572,7.315,5.1,5.1,0,0,0-.443.4,5.015,5.015,0,0,0-1.441,3.523.989.989,0,0,0,.989.989H135.84a.989.989,0,0,0,.989-.989,5.015,5.015,0,0,0-1.441-3.523,5.1,5.1,0,0,0-.443-.4,12.533,12.533,0,0,1,3.572-7.314A.989.989,0,0,0,138.642,133.322Zm-8.738-.441a.989.989,0,1,1-.989.989A.99.99,0,0,1,129.9,132.882Zm-4.778,11.938a3.022,3.022,0,0,1,2.8-2.045h3.957a3.022,3.022,0,0,1,2.8,2.045Zm7.96-3.873a4.861,4.861,0,0,0-1.2-.151h-3.957a4.857,4.857,0,0,0-1.2.151,14.518,14.518,0,0,0-3.473-7.183l5.665-8.5v5.807a2.968,2.968,0,1,0,1.979,0v-5.807l5.665,8.5A14.516,14.516,0,0,0,133.086,140.947Z" transform="translate(-121 -121.01)" fill="#02bf8c"/>
    </g>
  </g>
</svg>
