<svg xmlns="http://www.w3.org/2000/svg" width="25.336" height="33.305" viewBox="0 0 25.336 33.305">
  <g id="app-development" transform="translate(-10.037 -2.5)">
    <path id="Path_6498" data-name="Path 6498" d="M27.4,28.936v.838H11.853V7.444H27.4v6.39a1.522,1.522,0,0,1,.65-.141h1.166V4.571A2.1,2.1,0,0,0,27.137,2.5H12.108a2.077,2.077,0,0,0-2.071,2.071V33.734A2.073,2.073,0,0,0,12.108,35.8H27.137a2.081,2.081,0,0,0,2.076-2.071v-4.59H28.177a1.522,1.522,0,0,1-.781-.208ZM18.3,4.451h2.644a.52.52,0,1,1,0,1.041H18.3a.52.52,0,1,1,0-1.041ZM21.345,33.5H17.9a.52.52,0,1,1,0-1.041h3.445a.52.52,0,1,1,0,1.041Z" fill="#02bf8c"/>
    <path id="Path_6499" data-name="Path 6499" d="M34.109,22.595a.52.52,0,0,0,.736,0l2.175-2.2a.52.52,0,0,0,0-.732l-2.175-2.2a.52.52,0,1,0-.739.732l1.812,1.829-1.812,1.829a.52.52,0,0,0,0,.736Z" transform="translate(-11.274 -6.983)" fill="#02bf8c"/>
    <path id="Path_6500" data-name="Path 6500" d="M19.367,17.465a.519.519,0,0,0-.736,0l-2.175,2.2a.52.52,0,0,0,0,.732l2.175,2.2a.52.52,0,1,0,.739-.732l-1.812-1.829L19.37,18.2a.52.52,0,0,0,0-.736Z" transform="translate(-2.955 -6.982)" fill="#02bf8c"/>
    <path id="Path_6501" data-name="Path 6501" d="M27,14.524l-3.054,7.686a.52.52,0,1,0,.967.384l3.054-7.686A.52.52,0,1,0,27,14.524Z" transform="translate(-6.539 -5.513)" fill="#02bf8c"/>
    <path id="Path_6502" data-name="Path 6502" d="M45.562,31.139l-1.143-.129a5.022,5.022,0,0,0-.584-1.388v0l.676-.953a.546.546,0,0,0-.059-.7l-.819-.819a.546.546,0,0,0-.727-.041l-.9.716a5.039,5.039,0,0,0-1.4-.565L40.418,26.1a.546.546,0,0,0-.538-.455H38.719a.546.546,0,0,0-.542.485l-.129,1.147a5.167,5.167,0,0,0-1.388.584l-.957-.68a.546.546,0,0,0-.7.06l-.815.818a.546.546,0,0,0-.041.725l.718.9a4.914,4.914,0,0,0-.57,1.4l-1.154.195a.546.546,0,0,0-.455.538v1.157a.546.546,0,0,0,.484.542l1.139.129a5.122,5.122,0,0,0,.588,1.393v0l-.675.948a.546.546,0,0,0,.059.7l.819.819a.546.546,0,0,0,.726.041l.9-.717a5.069,5.069,0,0,0,1.393.565l.195,1.158a.546.546,0,0,0,.538.455H40.01a.546.546,0,0,0,.542-.485l.129-1.147a4.888,4.888,0,0,0,1.388-.584l.957.68a.546.546,0,0,0,.7-.06l.816-.818a.546.546,0,0,0,.041-.725l-.713-.9a5.127,5.127,0,0,0,.565-1.4l1.154-.195a.546.546,0,0,0,.455-.538V31.681a.546.546,0,0,0-.485-.542Zm-6.2,3.429a2.244,2.244,0,1,1,2.239-2.244A2.244,2.244,0,0,1,39.367,34.568Z" transform="translate(-10.674 -10.907)" fill="#02bf8c"/>
  </g>
</svg>
