<svg xmlns="http://www.w3.org/2000/svg" width="21" height="20" viewBox="0 0 21 20" fill="none">
  <path d="M19.334 5.5C19.334 7.98528 17.3193 10 14.834 10C12.3487 10 10.334 7.98528 10.334 5.5C10.334 3.01472 12.3487 1 14.834 1C17.3193 1 19.334 3.01472 19.334 5.5ZM17.1875 3.64645C16.9923 3.45118 16.6757 3.45118 16.4804 3.64645L13.834 6.29289L13.1875 5.64645C12.9923 5.45118 12.6757 5.45118 12.4804 5.64645C12.2852 5.84171 12.2852 6.15829 12.4804 6.35355L13.4804 7.35355C13.6757 7.54882 13.9923 7.54882 14.1875 7.35355L17.1875 4.35355C17.3828 4.15829 17.3828 3.84171 17.1875 3.64645ZM15.3408 10.977C15.0158 11.4664 14.6119 11.9391 14.1301 12.3942C14.0664 12.4544 14.0171 12.5269 13.9852 12.6065L13.9591 12.6883L13.0231 16.6051C12.8388 17.3763 12.1575 17.935 11.3521 17.9947L9.45945 18C8.64053 18 7.92398 17.4839 7.68264 16.7385L7.64506 16.6047L6.71025 12.6886C6.68353 12.5766 6.62415 12.4745 6.53914 12.3942C5.14929 11.0819 4.40663 9.62354 4.33905 8.03903L4.33398 7.80041L4.33719 7.60894C4.44169 4.49409 7.08655 2 10.334 2C10.4187 2 10.5031 2.0017 10.587 2.00506C10.3314 2.3153 10.1091 2.65404 9.92566 3.01578C7.48194 3.20539 5.53559 5.08152 5.34909 7.41357L5.33705 7.62569L5.33376 7.77916L5.33815 7.99642C5.39375 9.30026 6.01156 10.5208 7.22566 11.6671C7.41393 11.8449 7.5559 12.0647 7.63971 12.3078L7.68292 12.4564L8.04998 14H12.619L13.0062 12.3851L13.057 12.2343C13.1431 12.0198 13.2749 11.8265 13.4434 11.6673C13.692 11.4325 13.9156 11.1945 14.1145 10.9534C14.5149 11.0057 14.9357 11.014 15.3408 10.977ZM8.28898 15L8.60784 16.3344L8.63402 16.4305C8.73093 16.7298 9.00981 16.9517 9.34559 16.993L9.45945 17L11.2782 16.9974C11.6205 16.9721 11.9065 16.7609 12.0194 16.4718L12.0505 16.3727L12.379 15H8.28898Z" fill="#CA0515"/>
</svg>