<svg xmlns="http://www.w3.org/2000/svg" width="21" height="20" viewBox="0 0 21 20" fill="none">
  <path d="M9.33399 4C8.57144 4 7.85873 4.21338 7.2523 4.58369C7.18441 4.23521 7.07291 3.91747 6.91306 3.62413C7.63035 3.22644 8.45572 3 9.33399 3C12.0954 3 14.334 5.23858 14.334 8H16.834C17.6624 8 18.334 8.67157 18.334 9.5V15.5C18.334 16.3284 17.6624 17 16.834 17H10.834C10.0056 17 9.33399 16.3284 9.33399 15.5V13C8.6153 13 7.93203 12.8484 7.31442 12.5754C7.32725 12.2357 7.33398 11.8776 7.33398 11.5L7.33399 11.4649C7.92234 11.8052 8.60541 12 9.33399 12V9.5C9.33399 8.67157 10.0056 8 10.834 8H13.334C13.334 5.79086 11.5431 4 9.33399 4ZM14.234 9C13.8363 10.9591 12.2931 12.5023 10.334 12.9V15.5C10.334 15.7761 10.5578 16 10.834 16H16.834C17.1101 16 17.334 15.7761 17.334 15.5V9.5C17.334 9.22386 17.1101 9 16.834 9H14.234ZM13.208 9H10.834C10.5578 9 10.334 9.22386 10.334 9.5V11.874C11.7396 11.5122 12.8462 10.4056 13.208 9ZM4.91489 2.12516C5.08104 2.27184 5.13039 2.50986 5.0378 2.7099C5.03694 2.71223 5.03536 2.71679 5.0335 2.7233C5.02802 2.74248 5.02149 2.77386 5.02149 2.8125C5.02149 2.87632 5.03744 2.99635 5.18754 3.14645C5.26054 3.21945 5.31676 3.27129 5.37802 3.32777C5.42768 3.37356 5.48068 3.42243 5.54868 3.48817C5.67725 3.61244 5.81529 3.75807 5.93751 3.9414C6.19276 4.32428 6.33399 4.80266 6.33399 5.5C6.33399 6.35341 6.01785 7.07986 5.5253 7.52619C5.54704 7.55015 5.56819 7.57477 5.58876 7.6C5.86917 7.94407 6.03231 8.38978 6.13373 8.83013C6.33405 9.69992 6.33401 10.7457 6.33399 11.4746L6.33399 11.5C6.33399 14.2873 5.95516 15.8681 5.53797 16.772C5.32787 17.2272 5.10534 17.5165 4.91167 17.6994C4.81504 17.7907 4.72714 17.854 4.65418 17.8974C4.61781 17.9191 4.58551 17.9356 4.55811 17.9481C4.54443 17.9543 4.53201 17.9595 4.52096 17.9638C4.52096 17.9638 4.40836 18 4.33399 18C4.25962 18 4.14701 17.9638 4.14701 17.9638C4.13596 17.9595 4.12354 17.9543 4.10986 17.9481C4.08246 17.9356 4.05016 17.9191 4.01379 17.8974C3.94084 17.854 3.85294 17.7907 3.7563 17.6994C3.56263 17.5165 3.3401 17.2272 3.13001 16.772C2.71282 15.8681 2.33399 14.2873 2.33398 11.5V11.4746C2.33396 10.7457 2.33392 9.69992 2.53424 8.83013C2.63566 8.38978 2.79881 7.94407 3.07921 7.6C3.09978 7.57477 3.12093 7.55015 3.14267 7.52619C2.65012 7.07986 2.33398 6.35341 2.33398 5.5C2.33398 5.17432 2.42131 4.78457 2.54107 4.42621C2.6614 4.06616 2.82929 3.6937 3.02261 3.39408C3.25407 3.00387 3.5794 2.67734 3.8307 2.45654C3.96021 2.34275 4.07649 2.25148 4.16115 2.18811C4.2036 2.15634 4.23841 2.13135 4.26334 2.11381L4.29315 2.09311L4.30203 2.08707L4.30488 2.08515L4.30664 2.08398C4.49528 1.95822 4.74492 1.97512 4.91489 2.12516ZM4.33563 7C4.72046 6.99878 5.33399 6.57082 5.33399 5.5C5.33399 4.94735 5.22521 4.67573 5.10546 4.4961C5.04018 4.39818 4.95948 4.30944 4.85366 4.20715C4.82265 4.17717 4.77884 4.1364 4.72999 4.09093C4.64891 4.01546 4.55393 3.92706 4.48043 3.85356C4.36096 3.73408 4.26956 3.6111 4.201 3.48854C4.07938 3.61965 3.96576 3.76281 3.87901 3.91047C3.87517 3.91701 3.87118 3.92346 3.86705 3.92981C3.72789 4.14378 3.5911 4.43917 3.48951 4.74317C3.38608 5.05267 3.33399 5.32672 3.33399 5.5C3.33398 6.57235 3.94926 7 4.33399 7L4.33563 7ZM3.85438 8.23176C3.71292 8.40534 3.59481 8.6808 3.50873 9.05457C3.33639 9.80286 3.33399 10.7428 3.33399 11.5C3.33399 14.2127 3.70516 15.6319 4.03797 16.353C4.14717 16.5896 4.25092 16.7482 4.33399 16.8524C4.41705 16.7482 4.5208 16.5896 4.63001 16.353C4.96282 15.6319 5.33399 14.2127 5.33399 11.5C5.33399 10.7428 5.33158 9.80286 5.15924 9.05457C5.07316 8.6808 4.95506 8.40534 4.81359 8.23176C4.68844 8.0782 4.54476 8 4.33399 8L4.33203 8C4.12233 8.00048 3.97914 8.07868 3.85438 8.23176Z" fill="#CA0515"/>
</svg>