<svg xmlns="http://www.w3.org/2000/svg" width="44.665" height="26.055" viewBox="0 0 44.665 26.055">
  <g id="hand-shake" transform="translate(0 -106.666)">
    <g id="Group_12533" data-name="Group 12533" transform="translate(0 106.666)">
      <g id="Group_12532" data-name="Group 12532" transform="translate(0 0)">
        <path id="Path_6503" data-name="Path 6503" d="M10.794,108.713c-1.489-1.489-7.816-1.861-9.864-2.047a.684.684,0,0,0-.558.186A1.411,1.411,0,0,0,0,107.6v16.749a.879.879,0,0,0,.931.931H6.514a1.023,1.023,0,0,0,.931-.558c0-.558,3.35-10.422,3.722-15.261A.743.743,0,0,0,10.794,108.713Z" transform="translate(0 -106.666)" fill="#02bf8c"/>
      </g>
    </g>
    <g id="Group_12535" data-name="Group 12535" transform="translate(15.795 110.574)">
      <g id="Group_12534" data-name="Group 12534" transform="translate(0 0)">
        <path id="Path_6504" data-name="Path 6504" d="M195.973,154.072c-1.861-.558-3.536-1.3-5.025-1.861-3.35-1.489-4.839-.744-7.816,2.233-1.3,1.3-2.233,3.164-2.047,3.908,0,.186,0,.186.372.372.931.372,2.233.558,3.536-1.489a.967.967,0,0,1,.744-.372,3.449,3.449,0,0,0,1.3-.372,9.073,9.073,0,0,1,1.3-.558h.372c.186,0,.558.186.744.186.931.931,2.606,2.233,4.281,3.722a42.625,42.625,0,0,1,6.514,5.955h.186C199.137,162.075,196.9,155.747,195.973,154.072Z" transform="translate(-181.061 -151.467)" fill="#02bf8c"/>
      </g>
    </g>
    <g id="Group_12537" data-name="Group 12537" transform="translate(31.638 108.527)">
      <g id="Group_12536" data-name="Group 12536" transform="translate(0 0)">
        <path id="Path_6505" data-name="Path 6505" d="M374.763,128a32.636,32.636,0,0,0-11.539,1.861l-.558.558a1.119,1.119,0,0,0,.186.744c1.117,1.861,4.839,12.1,5.4,14.7a1.236,1.236,0,0,0,.931.744h5.583a.879.879,0,0,0,.931-.931V128.93A.879.879,0,0,0,374.763,128Z" transform="translate(-362.666 -128)" fill="#02bf8c"/>
      </g>
    </g>
    <g id="Group_12539" data-name="Group 12539" transform="translate(9.677 112.249)">
      <g id="Group_12538" data-name="Group 12538" transform="translate(0 0)">
        <path id="Path_6506" data-name="Path 6506" d="M134.941,185.183c-.744-1.675-3.908-4.094-6.7-6.328-1.489-1.3-2.978-2.419-4.094-3.35-.186.186-.558.186-.558.372a3.506,3.506,0,0,1-1.489.372c-1.489,1.861-3.35,2.605-5.4,1.861a2.2,2.2,0,0,1-1.675-1.675c-.372-1.861,1.3-4.466,2.605-5.769h-3.722a94.885,94.885,0,0,1-2.978,11.166,21.033,21.033,0,0,0,2.047,2.047c3.536,2.978,7.63,5.955,8.375,6.514a5.29,5.29,0,0,0,2.233.744h.558l-2.978-2.978a.921.921,0,0,1,1.3-1.3l3.722,3.722c.372.372.744.186,1.117.186.558-.186.744-.558.931-1.117l-4.28-4.28a.921.921,0,0,1,1.3-1.3l4.653,4.653a1.991,1.991,0,0,0,1.489,0c.186-.186.558-.372.744-.744l-5.211-5.211a.921.921,0,1,1,1.3-1.3l5.4,5.4a1.231,1.231,0,0,0,1.117-.186A1.263,1.263,0,0,0,134.941,185.183Z" transform="translate(-110.934 -170.667)" fill="#02bf8c"/>
      </g>
    </g>
  </g>
</svg>
