<svg xmlns="http://www.w3.org/2000/svg" width="20" height="20" viewBox="0 0 20 20" fill="none">
  <path d="M10.2441 3.01172C10.0867 3.01172 9.94624 3.0845 9.85459 3.19825L9.76519 3.26391C8.03935 2.72959 6.07142 3.12226 4.70142 4.44192C3.48542 5.61323 3.02758 7.23829 3.32788 8.75128C3.31079 8.76642 3.29395 8.78196 3.27738 8.79792L2.49905 9.54766C1.8623 10.161 1.8623 11.1554 2.49905 11.7688C2.89663 12.1518 3.44845 12.2956 3.9619 12.2003C4.02456 12.489 4.17219 12.7639 4.40481 12.988C4.71188 13.2837 5.11095 13.4369 5.51329 13.4474C5.52413 13.835 5.68312 14.2195 5.99026 14.5154C6.29733 14.8112 6.6964 14.9643 7.09874 14.9748C7.10962 15.3624 7.2686 15.7469 7.57571 16.0427C8.17883 16.6237 9.1369 16.6544 9.77751 16.1347L10.2148 16.5559C10.8548 17.1725 11.8925 17.1725 12.5325 16.5559C12.8385 16.2612 12.9981 15.8792 13.0116 15.4933C13.4113 15.481 13.8071 15.3279 14.1123 15.034C14.4182 14.7394 14.5771 14.357 14.5892 13.9712C14.9843 13.9559 15.3746 13.803 15.6763 13.5124C15.9188 13.2787 16.069 12.9899 16.1268 12.6878C16.6336 12.7745 17.1749 12.6293 17.5665 12.2521C18.2032 11.6388 18.2032 10.6443 17.5665 10.031L16.8476 9.33849L16.9935 8.7879C17.2914 7.6637 17.1412 6.47324 16.5745 5.45236C15.7384 3.94614 14.1163 3.01562 12.3618 3.01562L11.1325 3.01562C11.0796 3.01303 11.0264 3.01172 10.9729 3.01172H10.2441ZM12.6967 6.72764L15.1021 9.04465L15.105 9.04746L16.8462 10.7247C17.0852 10.9549 17.0852 11.3281 16.8462 11.5584C16.6073 11.7886 16.2198 11.7886 15.9808 11.5584L14.6594 10.2855C14.5639 10.1935 14.4344 10.1419 14.2993 10.1419C14.1643 10.1419 14.0347 10.1935 13.9392 10.2855L13.926 10.2983C13.7271 10.4899 13.7271 10.8005 13.926 10.9921L14.9561 11.9843C15.1952 12.2147 15.1952 12.5882 14.9561 12.8186C14.7379 13.0288 14.3951 13.0474 14.1556 12.8736C13.9521 12.7259 13.6666 12.7459 13.4873 12.9203C13.308 13.0947 13.2901 13.3699 13.4455 13.5645C13.6298 13.7954 13.6118 14.1286 13.3921 14.3402C13.1708 14.5533 12.8216 14.5694 12.5817 14.3879C12.3795 14.2348 12.0905 14.2511 11.9081 14.4257C11.7257 14.6004 11.7071 14.8786 11.8648 15.0744C12.0532 15.3084 12.0355 15.6472 11.8123 15.8622C11.5701 16.0956 11.1773 16.0956 10.935 15.8622L10.502 15.4451L10.6599 15.293C11.2967 14.6796 11.2967 13.6852 10.6599 13.0718C10.3528 12.7761 9.95377 12.6229 9.55143 12.6124C9.54056 12.2248 9.38157 11.8403 9.07446 11.5445C8.7674 11.2487 8.36832 11.0956 7.96598 11.0851C7.95514 10.6974 7.79615 10.3129 7.48901 10.0171C7.09143 9.63411 6.53961 9.49026 6.02616 9.58554C5.9635 9.29691 5.81587 9.02199 5.58325 8.79792C5.22942 8.4571 4.75343 8.30566 4.29105 8.34361C4.13615 7.20439 4.51301 6.0109 5.42163 5.13567C6.31873 4.27154 7.53789 3.90672 8.70693 4.0412L7.25276 5.10928C6.46615 5.68705 6.3178 6.78377 6.92265 7.54975C7.51905 8.30504 8.62438 8.45456 9.40002 7.88486L10.9755 6.72764H12.6967ZM7.84473 5.91524L10.4363 4.01172H10.9729C11.0133 4.01172 11.0534 4.01279 11.0932 4.01491C11.102 4.01539 11.1109 4.01562 11.1198 4.01562L12.3618 4.01562C13.7663 4.01562 15.0467 4.76052 15.7002 5.93771C16.1423 6.7342 16.2581 7.65908 16.0269 8.53172L16.0241 8.54203L13.2644 5.87452C13.1706 5.78049 13.0433 5.72764 12.9104 5.72764H10.8116C10.7052 5.72764 10.6015 5.76163 10.5157 5.82466L8.80804 7.0789C8.46659 7.3297 7.97002 7.26253 7.70747 6.93003C7.45336 6.60822 7.51426 6.15797 7.84473 5.91524ZM8.28651 14.5246L8.29613 14.5154L9.07446 13.7657L9.08392 13.7565C9.32358 13.5354 9.70391 13.5385 9.9397 13.7656C10.1787 13.9958 10.1787 14.369 9.9397 14.5992L9.16137 15.349C8.92238 15.5792 8.53491 15.5792 8.29592 15.349C8.06012 15.1218 8.05698 14.7554 8.28651 14.5246ZM8.36366 13.0626L8.35404 13.0718L7.57571 13.8216L7.56626 13.8307C7.32661 14.0518 6.94627 14.0488 6.71047 13.8216C6.47386 13.5937 6.47151 13.2256 6.70342 12.9949L6.71068 12.988L7.48902 12.2382L7.49605 12.2314C7.73556 12.0081 8.11766 12.0104 8.35425 12.2383C8.59005 12.4654 8.59319 12.8318 8.36366 13.0626ZM6.76859 11.5445L5.99026 12.2943L5.98323 12.3011C5.74372 12.5244 5.36161 12.5221 5.12502 12.2942C4.88604 12.064 4.88604 11.6908 5.12502 11.4606L5.90336 10.7108C6.14234 10.4806 6.52981 10.4806 6.7688 10.7108C7.00541 10.9387 7.00776 11.3069 6.77585 11.5376L6.76859 11.5445ZM4.86304 10.3253L4.0847 11.075C3.84572 11.3053 3.45825 11.3053 3.21926 11.075C2.98028 10.8448 2.98028 10.4716 3.21926 10.2414L3.9976 9.49167C4.23658 9.26147 4.62405 9.26147 4.86304 9.49167C5.10202 9.72188 5.10202 10.0951 4.86304 10.3253Z" fill="#CA0515"/>
</svg>