<svg xmlns="http://www.w3.org/2000/svg" width="21" height="20" viewBox="0 0 21 20" fill="none">
  <path d="M5.16602 5.75C5.16602 4.50736 6.17338 3.5 7.41602 3.5C8.65866 3.5 9.66602 4.50736 9.66602 5.75C9.66602 6.99264 8.65866 8 7.41602 8C6.17338 8 5.16602 6.99264 5.16602 5.75ZM7.41602 2.5C5.62109 2.5 4.16602 3.95507 4.16602 5.75C4.16602 7.54493 5.62109 9 7.41602 9C9.21094 9 10.666 7.54493 10.666 5.75C10.666 3.95507 9.21094 2.5 7.41602 2.5ZM2.16602 12C2.16602 10.8954 3.06145 10 4.16602 10H10.666C11.0272 10 11.3661 10.0958 11.6586 10.2633C11.3817 10.4928 11.1277 10.7489 10.9005 11.0276C10.8253 11.0096 10.7468 11 10.666 11H4.16602C3.61373 11 3.16602 11.4477 3.16602 12V12.0602L3.16604 12.0612L3.16665 12.0781C3.16743 12.0951 3.16915 12.1233 3.17288 12.1611C3.18035 12.2368 3.19578 12.3497 3.22748 12.4874C3.29114 12.7638 3.41837 13.1312 3.67113 13.497C4.15761 14.2012 5.17917 15 7.41602 15C8.37001 15 9.10295 14.8547 9.6676 14.6334C9.67591 14.9824 9.71673 15.3233 9.78714 15.6533C9.14291 15.8698 8.36154 16 7.41602 16C4.90286 16 3.54942 15.0801 2.8484 14.0655C2.50742 13.5719 2.33777 13.08 2.25299 12.7118C2.21047 12.5272 2.1888 12.3716 2.17771 12.2593C2.17216 12.2031 2.16924 12.1574 2.1677 12.1241C2.16694 12.1074 2.16652 12.0938 2.16628 12.0835L2.16606 12.0705L2.16603 12.0658L2.16602 12.064L2.16602 12.0625V12ZM13.666 6.5C13.666 5.67157 14.3376 5 15.166 5C15.9944 5 16.666 5.67157 16.666 6.5C16.666 7.32843 15.9944 8 15.166 8C14.3376 8 13.666 7.32843 13.666 6.5ZM15.166 4C13.7853 4 12.666 5.11929 12.666 6.5C12.666 7.88071 13.7853 9 15.166 9C16.5467 9 17.666 7.88071 17.666 6.5C17.666 5.11929 16.5467 4 15.166 4ZM19.666 14.5C19.666 16.9853 17.6513 19 15.166 19C12.6807 19 10.666 16.9853 10.666 14.5C10.666 12.0147 12.6807 10 15.166 10C17.6513 10 19.666 12.0147 19.666 14.5ZM17.5196 12.6464C17.3243 12.4512 17.0077 12.4512 16.8125 12.6464L14.166 15.2929L13.5196 14.6464C13.3243 14.4512 13.0077 14.4512 12.8125 14.6464C12.6172 14.8417 12.6172 15.1583 12.8125 15.3536L13.8125 16.3536C14.0077 16.5488 14.3243 16.5488 14.5196 16.3536L17.5196 13.3536C17.7148 13.1583 17.7148 12.8417 17.5196 12.6464Z" fill="#CA0515"/>
</svg>