<svg xmlns="http://www.w3.org/2000/svg" width="21" height="20" viewBox="0 0 21 20" fill="none">
  <path d="M6.01957 3.64645C6.21483 3.84171 6.21483 4.15829 6.01957 4.35355L5.37312 5H8.16602C8.44216 5 8.66602 5.22386 8.66602 5.5C8.66602 5.77614 8.44216 6 8.16602 6H5.37312L6.01957 6.64645C6.21483 6.84171 6.21483 7.15829 6.01957 7.35355C5.82431 7.54882 5.50772 7.54882 5.31246 7.35355L3.81246 5.85355C3.6172 5.65829 3.6172 5.34171 3.81246 5.14645L5.31246 3.64645C5.50772 3.45118 5.82431 3.45118 6.01957 3.64645ZM6.16602 9C4.7853 9 3.66602 10.1193 3.66602 11.5V14.5C3.66602 15.8807 4.7853 17 6.16602 17H15.166C16.5467 17 17.666 15.8807 17.666 14.5V11.5C17.666 10.1193 16.5467 9 15.166 9H6.16602ZM4.66602 11.5C4.66602 10.6716 5.33759 10 6.16602 10H15.166C15.9944 10 16.666 10.6716 16.666 11.5V14.5C16.666 15.3284 15.9944 16 15.166 16H6.16602C5.33759 16 4.66602 15.3284 4.66602 14.5V11.5ZM6.66602 12.5C6.38987 12.5 6.16602 12.7239 6.16602 13C6.16602 13.2761 6.38987 13.5 6.66602 13.5H14.666C14.9422 13.5 15.166 13.2761 15.166 13C15.166 12.7239 14.9422 12.5 14.666 12.5H6.66602ZM15.3125 4.35355C15.1172 4.15829 15.1172 3.84171 15.3125 3.64645C15.5077 3.45118 15.8243 3.45118 16.0196 3.64645L17.5196 5.14645C17.7148 5.34171 17.7148 5.65829 17.5196 5.85355L16.0196 7.35355C15.8243 7.54882 15.5077 7.54882 15.3125 7.35355C15.1172 7.15829 15.1172 6.84171 15.3125 6.64645L15.9589 6H13.166C12.8899 6 12.666 5.77614 12.666 5.5C12.666 5.22386 12.8899 5 13.166 5H15.9589L15.3125 4.35355Z" fill="#CA0515"/>
</svg>