<svg xmlns="http://www.w3.org/2000/svg" width="28.421" height="39.18" viewBox="0 0 28.421 39.18">
  <g id="_x34_3_Require" transform="translate(-94.679 -5.599)">
    <g id="Group_12527" data-name="Group 12527" transform="translate(94.679 5.599)">
      <path id="Path_6477" data-name="Path 6477" d="M170.9,5.6a2.671,2.671,0,0,0-2.889,2.375v.457h-5.492a.52.52,0,0,0-.563.463v1.512a2.957,2.957,0,0,0,3.2,2.622h11.5a2.957,2.957,0,0,0,3.2-2.622V8.894a.52.52,0,0,0-.563-.463h-5.492V7.974A2.674,2.674,0,0,0,170.9,5.6Z" transform="translate(-156.689 -5.599)" fill="#02bf8c"/>
      <path id="Path_6478" data-name="Path 6478" d="M123.1,87.755V57.047a2.473,2.473,0,0,0-2.605-2.314h-2.279V55.7a3.8,3.8,0,0,1-4,3.548h-10.65a3.8,3.8,0,0,1-4-3.548v-.963H97.284a2.473,2.473,0,0,0-2.605,2.314V87.755a2.478,2.478,0,0,0,2.605,2.314h23.21A2.477,2.477,0,0,0,123.1,87.755ZM104.287,79.37l-3.828,3.4a.556.556,0,0,1-.368.136.583.583,0,0,1-.368-.136L98.514,81.7a.429.429,0,0,1,0-.654.558.558,0,0,1,.736,0l.841.747,3.46-3.073a.572.572,0,0,1,.736,0A.43.43,0,0,1,104.287,79.37Zm0-8.342-3.828,3.4a.567.567,0,0,1-.736,0l-1.209-1.074a.429.429,0,0,1,0-.654.558.558,0,0,1,.736,0l.841.747,3.46-3.073a.572.572,0,0,1,.736,0,.43.43,0,0,1,0,.654Zm0-8.342-3.828,3.4a.556.556,0,0,1-.368.136.583.583,0,0,1-.368-.136l-1.209-1.074a.436.436,0,0,1,0-.66.572.572,0,0,1,.736,0l.841.753,3.46-3.073a.572.572,0,0,1,.736,0A.429.429,0,0,1,104.287,62.686Zm2.771-.95h11.837a.466.466,0,1,1,0,.926H107.058a.466.466,0,1,1,0-.926Zm5.823,21.33h-5.822a.466.466,0,1,1,0-.926h5.822a.466.466,0,1,1,0,.926Zm6.016-1.857H107.059a.466.466,0,1,1,0-.926H118.9a.466.466,0,1,1,0,.926Zm0-1.863H107.059a.466.466,0,1,1,0-.926H118.9a.466.466,0,1,1,0,.926Zm-12.359-5.084a.49.49,0,0,1,.521-.463h5.822a.466.466,0,1,1,0,.926h-5.822A.494.494,0,0,1,106.538,74.261Zm12.359-1.4H107.059a.466.466,0,1,1,0-.926H118.9a.466.466,0,1,1,0,.926Zm0-1.857H107.059a.466.466,0,1,1,0-.926H118.9a.466.466,0,1,1,0,.926Zm-12.359-5.09a.494.494,0,0,1,.521-.463h5.822a.466.466,0,1,1,0,.926h-5.822A.49.49,0,0,1,106.538,65.913ZM118.9,64.519H107.059a.466.466,0,1,1,0-.926H118.9a.466.466,0,1,1,0,.926Z" transform="translate(-94.679 -50.889)" fill="#02bf8c"/>
    </g>
  </g>
</svg>
