<svg xmlns="http://www.w3.org/2000/svg" width="21" height="20" viewBox="0 0 21 20" fill="none">
  <path d="M9.08398 3.75C9.08398 2.23122 7.85277 1 6.33398 1C4.8152 1 3.58398 2.23122 3.58398 3.75C3.58398 5.26878 4.8152 6.5 6.33398 6.5C7.85277 6.5 9.08398 5.26878 9.08398 3.75ZM4.58398 3.75C4.58398 2.7835 5.36749 2 6.33398 2C7.30048 2 8.08398 2.7835 8.08398 3.75C8.08398 4.7165 7.30048 5.5 6.33398 5.5C5.36749 5.5 4.58398 4.7165 4.58398 3.75ZM2.83398 7.5H7.01651C6.85257 7.81013 6.73085 8.14601 6.659 8.5H2.83398C2.55784 8.5 2.33398 8.72386 2.33398 9V9.5C2.33398 10.7591 3.43249 12.1138 5.43035 12.4309C5.10794 12.6501 4.83944 12.9426 4.64885 13.2845C2.53962 12.7119 1.33398 11.0874 1.33398 9.5V9C1.33398 8.17157 2.00556 7.5 2.83398 7.5ZM8.21257 7.5C8.71696 6.88925 9.48002 6.5 10.334 6.5C11.188 6.5 11.951 6.88925 12.4554 7.5C12.6945 7.78952 12.8755 8.12881 12.9805 8.5C13.0479 8.73842 13.084 8.98999 13.084 9.25C13.084 10.32 12.4728 11.2473 11.5806 11.7019C11.2259 11.8825 10.8269 11.9885 10.4042 11.9991C10.3808 11.9997 10.3574 12 10.334 12C10.3105 12 10.2871 11.9997 10.2638 11.9991C9.84108 11.9885 9.44204 11.8826 9.08741 11.7019C8.19513 11.2473 7.58398 10.32 7.58398 9.25C7.58398 8.98999 7.62007 8.73842 7.6875 8.5C7.79249 8.12881 7.97347 7.78952 8.21257 7.5ZM8.75239 8.5C8.64441 8.72731 8.58398 8.9816 8.58398 9.25C8.58398 9.96407 9.01166 10.5782 9.62485 10.8504C9.84161 10.9466 10.0816 11 10.334 11C10.5864 11 10.8264 10.9466 11.0431 10.8504C11.6563 10.5782 12.084 9.96407 12.084 9.25C12.084 8.9816 12.0236 8.72731 11.9156 8.5C11.6702 7.98351 11.1793 7.60627 10.5937 7.51914C10.509 7.50653 10.4222 7.5 10.334 7.5C10.2457 7.5 10.159 7.50653 10.0743 7.51914C9.48866 7.60627 8.99775 7.98351 8.75239 8.5ZM16.0191 13.2845C15.8285 12.9426 15.56 12.6501 15.2376 12.4309C17.2355 12.1138 18.334 10.7591 18.334 9.5V9C18.334 8.72386 18.1101 8.5 17.834 8.5H14.009C13.9371 8.14601 13.8154 7.81013 13.6515 7.5H17.834C18.6624 7.5 19.334 8.17157 19.334 9V9.5C19.334 11.0874 18.1284 12.7119 16.0191 13.2845ZM14.8212 13.3706C14.5574 13.1398 14.212 13 13.834 13H6.83398C6.40195 13 6.01258 13.1826 5.73888 13.4749C5.48774 13.7431 5.33398 14.1036 5.33398 14.5V15C5.33398 16.9714 7.19349 19 10.334 19C13.4745 19 15.334 16.9714 15.334 15V14.5C15.334 14.0496 15.1355 13.6456 14.8212 13.3706ZM6.33398 14.5C6.33398 14.2239 6.55784 14 6.83398 14H13.834C14.1101 14 14.334 14.2239 14.334 14.5V15C14.334 16.4376 12.9018 18 10.334 18C7.76614 18 6.33398 16.4376 6.33398 15V14.5ZM14.334 1C15.8528 1 17.084 2.23122 17.084 3.75C17.084 5.26878 15.8528 6.5 14.334 6.5C12.8152 6.5 11.584 5.26878 11.584 3.75C11.584 2.23122 12.8152 1 14.334 1ZM14.334 2C13.3675 2 12.584 2.7835 12.584 3.75C12.584 4.7165 13.3675 5.5 14.334 5.5C15.3005 5.5 16.084 4.7165 16.084 3.75C16.084 2.7835 15.3005 2 14.334 2Z" fill="#CA0515"/>
</svg>