<svg xmlns="http://www.w3.org/2000/svg" width="21" height="20" viewBox="0 0 21 20" fill="none">
  <path d="M12.4582 6.20041C12.5689 5.94742 12.4535 5.65261 12.2005 5.54193C11.9475 5.43124 11.6527 5.54661 11.542 5.79959L8.04205 13.7996C7.93136 14.0526 8.04673 14.3474 8.29972 14.4581C8.55271 14.5688 8.84752 14.4534 8.95821 14.2004L12.4582 6.20041ZM7.35355 7.64645C7.54882 7.84171 7.54882 8.15829 7.35355 8.35355L5.70711 10L7.35355 11.6464C7.54882 11.8417 7.54882 12.1583 7.35355 12.3536C7.15829 12.5488 6.84171 12.5488 6.64645 12.3536L4.64645 10.3536C4.45118 10.1583 4.45118 9.84171 4.64645 9.64645L6.64645 7.64645C6.84171 7.45118 7.15829 7.45118 7.35355 7.64645ZM13.6464 8.35355C13.4512 8.15829 13.4512 7.84171 13.6464 7.64645C13.8417 7.45118 14.1583 7.45118 14.3536 7.64645L16.3536 9.64645C16.5488 9.84171 16.5488 10.1583 16.3536 10.3536L14.3536 12.3536C14.1583 12.5488 13.8417 12.5488 13.6464 12.3536C13.4512 12.1583 13.4512 11.8417 13.6464 11.6464L15.2929 10L13.6464 8.35355ZM10.5 2C6.08172 2 2.5 5.58172 2.5 10C2.5 14.4183 6.08172 18 10.5 18C14.9183 18 18.5 14.4183 18.5 10C18.5 5.58172 14.9183 2 10.5 2ZM3.5 10C3.5 6.13401 6.63401 3 10.5 3C14.366 3 17.5 6.13401 17.5 10C17.5 13.866 14.366 17 10.5 17C6.63401 17 3.5 13.866 3.5 10Z" fill="#CA0515"/>
</svg>