<svg xmlns="http://www.w3.org/2000/svg" width="31.771" height="31.771" viewBox="0 0 31.771 31.771">
  <g id="upload_3_" data-name="upload (3)" transform="translate(0)">
    <path id="Path_30872" data-name="Path 30872" d="M386.318,7.745h6.926L385.388,0V6.814A.932.932,0,0,0,386.318,7.745Z" transform="translate(-361.474)" fill="#02bf8c"/>
    <path id="Path_30873" data-name="Path 30873" d="M78.171,6.814V0H60.762a.931.931,0,0,0-.931.931V7.2h10.4A5.117,5.117,0,0,1,75.34,12.31v10.8a5.117,5.117,0,0,1-5.111,5.111h-10.4V30.84a.931.931,0,0,0,.931.931h26.2a.931.931,0,0,0,.931-.931V9.606H80.963A2.8,2.8,0,0,1,78.171,6.814Z" transform="translate(-56.118)" fill="#02bf8c"/>
    <path id="Path_30874" data-name="Path 30874" d="M17.422,159.122v-10.8a3.312,3.312,0,0,0-3.312-3.312H3.312A3.312,3.312,0,0,0,0,148.319v10.8a3.312,3.312,0,0,0,3.312,3.312h10.8A3.312,3.312,0,0,0,17.422,159.122Zm-5.184-6.361a.931.931,0,0,1-1.316,0l-1.28-1.28v6.76a.931.931,0,0,1-1.862,0v-6.76l-1.28,1.28a.931.931,0,1,1-1.316-1.316l2.869-2.869a.936.936,0,0,1,1.316,0l2.869,2.869a.931.931,0,0,1,0,1.316Z" transform="translate(0 -136.009)" fill="#02bf8c"/>
  </g>
</svg>
